<mxfile host="app.diagrams.net" modified="2023-04-22T14:10:59.284Z" agent="Mozilla/5.0 (Windows NT 10.0; Win64; x64) AppleWebKit/537.36 (KHTML, like Gecko) Chrome/112.0.0.0 Safari/537.36" etag="rC6GR8zh3o-kAvMZVG7g" version="21.1.5" type="device">
  <diagram name="Page-1" id="EbTEgvrjKRS6cFVn7dNa">
    <mxGraphModel dx="1843" dy="779" grid="1" gridSize="10" guides="1" tooltips="1" connect="1" arrows="1" fold="1" page="1" pageScale="1" pageWidth="850" pageHeight="1100" math="0" shadow="0">
      <root>
        <mxCell id="0" />
        <mxCell id="1" parent="0" />
        <mxCell id="Yoow9SfRWlwlbkRsjI7_-2" value="" style="rounded=1;whiteSpace=wrap;html=1;" vertex="1" parent="1">
          <mxGeometry x="250" y="140" width="440" height="320" as="geometry" />
        </mxCell>
        <mxCell id="Yoow9SfRWlwlbkRsjI7_-14" style="edgeStyle=orthogonalEdgeStyle;rounded=0;orthogonalLoop=1;jettySize=auto;html=1;entryX=0;entryY=0.5;entryDx=0;entryDy=0;" edge="1" parent="1" source="Yoow9SfRWlwlbkRsjI7_-3" target="Yoow9SfRWlwlbkRsjI7_-4">
          <mxGeometry relative="1" as="geometry" />
        </mxCell>
        <mxCell id="Yoow9SfRWlwlbkRsjI7_-3" value="" style="shape=image;verticalLabelPosition=bottom;labelBackgroundColor=default;verticalAlign=top;aspect=fixed;imageAspect=0;image=https://seeklogo.com/images/P/postman-logo-F43375A2EB-seeklogo.com.png;" vertex="1" parent="1">
          <mxGeometry x="20" y="234.46" width="40" height="41.09" as="geometry" />
        </mxCell>
        <mxCell id="Yoow9SfRWlwlbkRsjI7_-13" style="edgeStyle=orthogonalEdgeStyle;rounded=0;orthogonalLoop=1;jettySize=auto;html=1;exitX=0.5;exitY=0;exitDx=0;exitDy=0;entryX=0;entryY=0.75;entryDx=0;entryDy=0;" edge="1" parent="1" source="Yoow9SfRWlwlbkRsjI7_-4" target="Yoow9SfRWlwlbkRsjI7_-11">
          <mxGeometry relative="1" as="geometry" />
        </mxCell>
        <mxCell id="Yoow9SfRWlwlbkRsjI7_-24" style="edgeStyle=orthogonalEdgeStyle;rounded=0;orthogonalLoop=1;jettySize=auto;html=1;entryX=0;entryY=0.5;entryDx=0;entryDy=0;" edge="1" parent="1" target="Yoow9SfRWlwlbkRsjI7_-17">
          <mxGeometry relative="1" as="geometry">
            <mxPoint x="230" y="255" as="sourcePoint" />
            <Array as="points">
              <mxPoint x="320" y="255" />
              <mxPoint x="320" y="190" />
            </Array>
          </mxGeometry>
        </mxCell>
        <object label="Api Gateway" port="8081&#xa;" id="Yoow9SfRWlwlbkRsjI7_-4">
          <mxCell style="rounded=1;whiteSpace=wrap;html=1;arcSize=0;" vertex="1" parent="1">
            <mxGeometry x="130" y="235" width="100" height="40" as="geometry" />
          </mxCell>
        </object>
        <object label="Eureka Server" port="8082" id="Yoow9SfRWlwlbkRsjI7_-5">
          <mxCell style="rounded=1;whiteSpace=wrap;html=1;" vertex="1" parent="1">
            <mxGeometry x="160" y="500" width="120" height="60" as="geometry" />
          </mxCell>
        </object>
        <mxCell id="Yoow9SfRWlwlbkRsjI7_-6" value="" style="endArrow=classic;startArrow=classic;html=1;rounded=0;exitX=0.5;exitY=0;exitDx=0;exitDy=0;" edge="1" parent="1" source="Yoow9SfRWlwlbkRsjI7_-5">
          <mxGeometry width="50" height="50" relative="1" as="geometry">
            <mxPoint x="140" y="350" as="sourcePoint" />
            <mxPoint x="220" y="280" as="targetPoint" />
          </mxGeometry>
        </mxCell>
        <mxCell id="Yoow9SfRWlwlbkRsjI7_-12" style="edgeStyle=orthogonalEdgeStyle;rounded=0;orthogonalLoop=1;jettySize=auto;html=1;entryX=0.25;entryY=0;entryDx=0;entryDy=0;exitX=0;exitY=0.25;exitDx=0;exitDy=0;" edge="1" parent="1" source="Yoow9SfRWlwlbkRsjI7_-11" target="Yoow9SfRWlwlbkRsjI7_-4">
          <mxGeometry relative="1" as="geometry">
            <mxPoint x="190" y="230" as="targetPoint" />
          </mxGeometry>
        </mxCell>
        <mxCell id="Yoow9SfRWlwlbkRsjI7_-35" style="edgeStyle=orthogonalEdgeStyle;rounded=0;orthogonalLoop=1;jettySize=auto;html=1;" edge="1" parent="1" source="Yoow9SfRWlwlbkRsjI7_-11" target="Yoow9SfRWlwlbkRsjI7_-34">
          <mxGeometry relative="1" as="geometry" />
        </mxCell>
        <mxCell id="Yoow9SfRWlwlbkRsjI7_-11" value="Auth server" style="rounded=1;whiteSpace=wrap;html=1;" vertex="1" parent="1">
          <mxGeometry x="320" y="50" width="130" height="60" as="geometry" />
        </mxCell>
        <mxCell id="Yoow9SfRWlwlbkRsjI7_-38" style="edgeStyle=orthogonalEdgeStyle;rounded=0;orthogonalLoop=1;jettySize=auto;html=1;exitX=1;exitY=0.5;exitDx=0;exitDy=0;entryX=0;entryY=0.5;entryDx=0;entryDy=0;entryPerimeter=0;" edge="1" parent="1" source="Yoow9SfRWlwlbkRsjI7_-17" target="Yoow9SfRWlwlbkRsjI7_-34">
          <mxGeometry relative="1" as="geometry" />
        </mxCell>
        <mxCell id="Yoow9SfRWlwlbkRsjI7_-17" value="Exam service&amp;nbsp;" style="rounded=1;whiteSpace=wrap;html=1;" vertex="1" parent="1">
          <mxGeometry x="410" y="160" width="120" height="60" as="geometry" />
        </mxCell>
        <mxCell id="Yoow9SfRWlwlbkRsjI7_-39" style="edgeStyle=orthogonalEdgeStyle;rounded=0;orthogonalLoop=1;jettySize=auto;html=1;exitX=1;exitY=0.5;exitDx=0;exitDy=0;entryX=-0.065;entryY=0.513;entryDx=0;entryDy=0;entryPerimeter=0;" edge="1" parent="1" source="Yoow9SfRWlwlbkRsjI7_-18" target="Yoow9SfRWlwlbkRsjI7_-34">
          <mxGeometry relative="1" as="geometry">
            <Array as="points">
              <mxPoint x="734" y="290" />
            </Array>
          </mxGeometry>
        </mxCell>
        <mxCell id="Yoow9SfRWlwlbkRsjI7_-18" value="" style="rounded=1;whiteSpace=wrap;html=1;" vertex="1" parent="1">
          <mxGeometry x="410" y="260" width="120" height="60" as="geometry" />
        </mxCell>
        <mxCell id="Yoow9SfRWlwlbkRsjI7_-40" style="edgeStyle=orthogonalEdgeStyle;rounded=0;orthogonalLoop=1;jettySize=auto;html=1;exitX=1;exitY=0.5;exitDx=0;exitDy=0;" edge="1" parent="1" source="Yoow9SfRWlwlbkRsjI7_-19" target="Yoow9SfRWlwlbkRsjI7_-34">
          <mxGeometry relative="1" as="geometry" />
        </mxCell>
        <mxCell id="Yoow9SfRWlwlbkRsjI7_-19" value="" style="rounded=1;whiteSpace=wrap;html=1;" vertex="1" parent="1">
          <mxGeometry x="410" y="350" width="120" height="60" as="geometry" />
        </mxCell>
        <mxCell id="Yoow9SfRWlwlbkRsjI7_-25" value="" style="endArrow=classic;html=1;rounded=0;exitX=1;exitY=0.5;exitDx=0;exitDy=0;" edge="1" parent="1" source="Yoow9SfRWlwlbkRsjI7_-4">
          <mxGeometry width="50" height="50" relative="1" as="geometry">
            <mxPoint x="360" y="340" as="sourcePoint" />
            <mxPoint x="410" y="290" as="targetPoint" />
            <Array as="points">
              <mxPoint x="320" y="255" />
              <mxPoint x="320" y="290" />
            </Array>
          </mxGeometry>
        </mxCell>
        <mxCell id="Yoow9SfRWlwlbkRsjI7_-31" value="" style="endArrow=classic;html=1;rounded=0;" edge="1" parent="1">
          <mxGeometry width="50" height="50" relative="1" as="geometry">
            <mxPoint x="320" y="290" as="sourcePoint" />
            <mxPoint x="410" y="380" as="targetPoint" />
          </mxGeometry>
        </mxCell>
        <mxCell id="Yoow9SfRWlwlbkRsjI7_-34" value="" style="aspect=fixed;html=1;points=[];align=center;image;fontSize=12;image=img/lib/azure2/databases/Azure_Database_PostgreSQL_Server.svg;rounded=0;sketch=0;fontColor=#3399FF;" vertex="1" parent="1">
          <mxGeometry x="740" y="229" width="90.75" height="121" as="geometry" />
        </mxCell>
      </root>
    </mxGraphModel>
  </diagram>
</mxfile>
